<svg width="119" height="149" viewBox="0 0 119 149" fill="none" xmlns="http://www.w3.org/2000/svg">
<path d="M38.9429 54.1189V72.1145L79.4871 95.7472" stroke="black" stroke-linecap="round" stroke-linejoin="round"/>
<path d="M33.0899 65.8272L25.9351 69.7299L28.9705 61.491L33.0899 65.8272Z" fill="black"/>
<path d="M29.4038 67.7781V76.6675L89.895 111.791" stroke="black" stroke-linecap="round" stroke-linejoin="round"/>
<path d="M5.12256 34.1089V12.491L98.5695 66.6945V109.841L79.9234 99.2166V77.5352L5.12256 34.1089Z" fill="#4A40EE"/>
<path d="M5.12256 12.2741L23.9854 0.999756L118.083 56.0706V98.9998L98.7863 110.057M5.12256 12.2741L98.7863 66.4776V110.057M5.12256 12.2741V34.1723L79.9234 77.5352V99.4334L98.7863 110.057" stroke="black" stroke-linecap="square"/>
<path d="M109.407 74.234L106.154 76.0175L110.274 80.7874L112.876 72.3317L109.407 74.234Z" fill="black"/>
<path d="M109.625 75.1502V60.6237L49.5679 25.7166" stroke="black" stroke-linecap="round" stroke-linejoin="round"/>
<path d="M1.00146 93.6643V49.9998L19.6475 60.8405L19.8643 82.9555L94.882 126.535V147.783L1.00146 93.6643Z" fill="#CCFF00"/>
<path d="M16.8289 40.8932L1.00146 49.9994M1.00146 49.9994V93.7959L94.882 147.999M1.00146 49.9994L19.8643 60.8402V82.9552L94.882 126.535V147.999M94.882 147.999L114.178 137.376V115.477L101.82 108.322" stroke="black" stroke-linecap="round" stroke-linejoin="round"/>
</svg>
