<svg width="158" height="149" viewBox="0 0 158 149" fill="none" xmlns="http://www.w3.org/2000/svg">
<path d="M1 123.636V75.1801L43.1944 98.9996V147.773L1 123.636Z" fill="#4A40EE"/>
<path d="M1 75.1803V123.727L43.1944 148M1 75.1803L43.1944 49.9998L86.0694 74.9535M1 75.1803L43.1944 98.9998M43.1944 148L86.0694 123.727V74.9535M43.1944 148V98.9998M86.0694 74.9535L43.1944 98.9998" stroke="black" stroke-linecap="round" stroke-linejoin="round"/>
<path d="M27.7679 120.778L13.7031 112.838L22.0966 103.991L27.7679 120.778Z" fill="white"/>
<path d="M114.425 98.7732V50.2268L157.3 26.1805V74.5L114.425 98.7732Z" fill="#CCFF00"/>
<path d="M72.23 74.4997V26.4071L114.424 50.2265V98.7728L72.23 74.4997Z" fill="white"/>
<path d="M72.2305 26.1803V74.7266L114.425 98.9998M72.2305 26.1803L114.425 0.999756L157.3 25.9535M72.2305 26.1803L114.425 49.9998M114.425 98.9998L157.3 74.7266V25.9535M114.425 98.9998V49.9998M157.3 25.9535L114.425 49.9998" stroke="black" stroke-linecap="round" stroke-linejoin="round"/>
<path d="M98.9974 71.7781L84.9326 63.8383L93.3261 54.991L98.9974 71.7781Z" fill="black"/>
</svg>
