<svg width="157" height="148" viewBox="0 0 157 148" fill="none" xmlns="http://www.w3.org/2000/svg">
<path d="M1 83.4998V29.4998L48 56.4998V111L1 83.4998Z" fill="#CCFF00"/>
<path d="M1 28.9998V83.9998L48.5 111.5M1 28.9998L48.5 0.999756L96.5 28.9998M1 28.9998L48.5 56.4998M48.5 111.5L96.5 82.4998V28.9998M48.5 111.5V56.4998M96.5 28.9998L48.5 56.4998" stroke="black" stroke-linecap="round" stroke-linejoin="round"/>
<path d="M60.0015 119.499V65.4994L107.001 92.4994V146.999L60.0015 119.499Z" fill="#4A40EE"/>
<path d="M61.0015 64.9995L107.501 37.4995L154.501 64.9995L107.501 91.9995L61.0015 64.9995Z" fill="white"/>
<path d="M60.0015 64.9994V119.999L107.501 147.499M60.0015 64.9994L107.501 36.9994L155.501 64.9994M60.0015 64.9994L107.501 92.4994M107.501 147.499L155.501 118.499V64.9994M107.501 147.499V92.4994M155.501 64.9994L107.501 92.4994" stroke="black" stroke-linecap="round" stroke-linejoin="round"/>
</svg>
