<svg width="138" height="52" viewBox="0 0 138 52" fill="none" xmlns="http://www.w3.org/2000/svg">
<rect x="0.00146484" y="-0.000244141" width="137" height="52" rx="26" fill="#E0E0E0" fill-opacity="0.2"/>
<path d="M42.136 27.1298C41.86 26.3618 41.722 25.5518 41.722 24.6998C41.722 23.8478 41.86 23.0378 42.136 22.2698C42.424 21.5018 42.832 20.8118 43.36 20.1998C43.888 19.5758 44.584 19.0838 45.448 18.7238C46.312 18.3518 47.278 18.1658 48.346 18.1658C49.414 18.1658 50.374 18.3518 51.226 18.7238C52.09 19.0838 52.786 19.5758 53.314 20.1998C53.854 20.8118 54.262 21.5018 54.538 22.2698C54.826 23.0378 54.97 23.8478 54.97 24.6998C54.97 25.5518 54.826 26.3618 54.538 27.1298C54.262 27.8978 53.854 28.5938 53.314 29.2178C52.786 29.8298 52.09 30.3218 51.226 30.6938C50.374 31.0538 49.414 31.2338 48.346 31.2338C47.278 31.2338 46.312 31.0538 45.448 30.6938C44.584 30.3218 43.888 29.8298 43.36 29.2178C42.832 28.5938 42.424 27.8978 42.136 27.1298ZM51.694 27.9758C52.486 27.0878 52.882 25.9958 52.882 24.6998C52.882 23.4038 52.486 22.3118 51.694 21.4238C50.914 20.5358 49.798 20.0918 48.346 20.0918C46.906 20.0918 45.79 20.5358 44.998 21.4238C44.206 22.3118 43.81 23.4038 43.81 24.6998C43.81 25.9958 44.206 27.0878 44.998 27.9758C45.79 28.8638 46.906 29.3078 48.346 29.3078C49.798 29.3078 50.914 28.8638 51.694 27.9758ZM58.7414 30.9998H56.8154V22.3598H58.7414V25.8338H63.0614V22.3598H64.9874V30.9998H63.0614V27.5258H58.7414V30.9998ZM70.8354 23.9978C70.7634 25.1258 70.6674 26.0918 70.5474 26.8958C70.4274 27.6998 70.2474 28.4438 70.0074 29.1278C69.7674 29.7998 69.4494 30.3098 69.0534 30.6578C68.6694 30.9938 68.1954 31.1618 67.6314 31.1618C67.2594 31.1618 66.8634 31.0838 66.4434 30.9278V29.4158C66.6474 29.4878 66.8334 29.5238 67.0014 29.5238C67.6854 29.5238 68.1654 28.9298 68.4414 27.7418C68.7294 26.5418 68.9214 24.7478 69.0174 22.3598H75.6774V30.9998H73.7514V23.9978H70.8354ZM85.4469 29.0018C85.4469 29.4218 85.6569 29.6318 86.0769 29.6318C86.2209 29.6318 86.4129 29.5958 86.6529 29.5238V30.9098C86.2929 31.0538 85.8849 31.1258 85.4289 31.1258C84.5649 31.1258 83.9889 30.7898 83.7009 30.1178C82.7769 30.8618 81.6909 31.2338 80.4429 31.2338C79.6029 31.2338 78.8889 31.0058 78.3009 30.5498C77.7129 30.0818 77.4189 29.4278 77.4189 28.5878C77.4189 27.5798 77.7969 26.8478 78.5529 26.3918C79.3089 25.9238 80.2149 25.6898 81.2709 25.6898C81.9669 25.6898 82.7169 25.7738 83.5209 25.9418V25.6358C83.5209 25.0838 83.3229 24.6398 82.9269 24.3038C82.5309 23.9678 81.9729 23.7998 81.2529 23.7998C80.1849 23.7998 79.1469 24.0218 78.1389 24.4658V22.7018C79.2669 22.3178 80.3709 22.1258 81.4509 22.1258C82.7109 22.1258 83.6889 22.4378 84.3849 23.0618C85.0929 23.6858 85.4469 24.6338 85.4469 25.9058V29.0018ZM81.6489 27.0398C81.0129 27.0398 80.4789 27.1538 80.0469 27.3818C79.6149 27.6098 79.3989 27.9698 79.3989 28.4618C79.3989 28.8698 79.5549 29.1878 79.8669 29.4158C80.1789 29.6318 80.5629 29.7398 81.0189 29.7398C82.0029 29.7398 82.8369 29.3978 83.5209 28.7138V27.2558C82.8249 27.1118 82.2009 27.0398 81.6489 27.0398ZM94.8364 20.4158C94.1164 20.9078 93.2404 21.1538 92.2084 21.1538C91.1764 21.1538 90.3004 20.9078 89.5804 20.4158V18.8498C90.3844 19.3538 91.2604 19.6058 92.2084 19.6058C93.1564 19.6058 94.0324 19.3538 94.8364 18.8498V20.4158ZM89.7604 30.9998H88.1044V22.3598H90.0304V28.0118L94.6564 22.3598H96.3124V30.9998H94.3864V25.3478L89.7604 30.9998ZM100.648 30.9998H98.7216V22.3598H100.648V25.8338H104.968V22.3598H106.894V30.9998H104.968V27.5258H100.648V30.9998Z" fill="white"/>
</svg>
